<?xml version="1.0" ?>
<!-- Uploaded to: SVG Repo, www.svgrepo.com, Generator: SVG Repo Mixer Tools -->
<svg fill="#000000" width="800px" height="800px" viewBox="0 0 32 32" id="Camada_1" version="1.1" xml:space="preserve" xmlns="http://www.w3.org/2000/svg" xmlns:xlink="http://www.w3.org/1999/xlink">
<g>
<path d="M24.6,4.4c0.7,0.5,1.3,1.1,1.9,1.7c0.8,0.9,1.5,1.8,2,2.9c0.1,0.3,0.3,0.6,0.4,0.9c-0.1-0.1-0.2-0.1-0.3-0.2   C28,9.2,27.5,8.5,27.2,8c-0.2-0.2-0.3-0.5-0.5-0.7c-0.3-0.4-0.6-0.9-0.9-1.3c-0.4-0.6-0.9-1.1-1.3-1.7L24.6,4.4L24.6,4.4z"/>
<path d="M17.3,29.7c-0.1,0-0.2,0-0.4,0h-1.8c-0.1,0-0.2,0-0.3,0c-5-0.4-9.4-3.5-11.5-8c-0.1-0.4-0.1-0.6-0.1-0.9   c0-0.8,0.3-1.3,0.7-1.7c0.3-0.2,0.5-0.3,0.9-0.4c0.1,0,0.1,0,0.2,0c0.4,0,0.9,0.1,1.4,0.3c1,0.5,1.9,1.2,2.8,2.3   c0.3,0.4,0.6,0.7,0.9,1.1c0.3,0.4,0.6,0.8,1,1.2c0.7,0.8,1.5,1.5,2.4,2.3c1.1,0.9,2.2,1.5,3.4,2c1.2,0.5,2.5,0.9,3.8,1   C19.5,29.4,18.4,29.6,17.3,29.7L17.3,29.7z"/>
<path d="M24.1,25.8c-0.6,0.2-1.2,0.3-1.9,0.3c-0.1,0-0.3,0-0.4,0c-1.2,0-2.4-0.3-3.7-0.8c-0.9-0.4-1.8-0.9-2.7-1.6   c-0.8-0.6-1.5-1.3-2-1.9c-0.3-0.4-0.6-0.7-0.9-1.1c-0.3-0.4-0.6-0.8-0.9-1.1C10.2,18,9,17.1,7.7,16.4C6.8,16,5.9,15.8,5,15.8   c-0.1,0-0.3,0-0.5,0c-1,0.1-1.9,0.5-2.6,1.1c0-0.1,0-0.2,0-0.3c0-0.3,0-0.5,0-0.8v-0.4c0-0.1,0-0.2,0.1-0.3   c0.2-1.3,0.7-2.3,1.5-3.2c0.8-0.8,1.7-1.3,2.7-1.4c0.2,0,0.3,0,0.5,0c0.7,0,1.5,0.2,2.3,0.5c0.9,0.4,1.7,0.9,2.6,1.7   c1.1,1,2.1,2.2,3.1,3.6c0.5,0.8,1.1,1.7,1.8,2.5c1.4,1.6,2.8,2.8,4.3,3.7c1.4,0.8,2.7,1.2,4.1,1.3c0.2,0,0.4,0,0.6,0   c0.7,0,1.4-0.1,2-0.2C26.5,24.7,25.4,25.4,24.1,25.8L24.1,25.8z"/>
<path d="M29.9,18c-0.3,0.8-0.7,1.4-1.3,1.9c-0.9,0.8-1.9,1.1-3.2,1.1c-0.1,0-0.3,0-0.4,0c-0.9-0.1-1.9-0.4-2.9-0.9   c-1.2-0.7-2.4-1.7-3.5-3c-0.6-0.7-1.1-1.5-1.6-2.3c-1.1-1.7-2.3-3-3.6-4.2c-1.1-1-2.2-1.7-3.3-2.2C9,7.9,7.8,7.7,6.7,7.7   c-0.3,0-0.5,0-0.8,0C5.3,7.8,4.7,7.9,4.2,8.1c0.3-0.5,0.6-0.9,1-1.3l0.1-0.1c0.1-0.1,0.3-0.2,0.4-0.3C6.7,5.5,7.7,5,8.7,4.6   c0.6-0.2,1.2-0.3,1.7-0.3c0.2,0,0.4,0,0.6,0c0.9,0.1,1.8,0.4,2.7,0.9c1,0.6,1.9,1.4,2.9,2.4c0.8,0.9,1.5,1.8,2.2,2.8   c0.2,0.3,0.3,0.5,0.5,0.8c0.3,0.4,0.5,0.8,0.8,1.3c0.9,1.3,1.8,2.4,2.8,3.3c0.8,0.7,1.6,1.2,2.5,1.6c0.9,0.4,1.7,0.6,2.6,0.6   c0.3,0,0.5,0,0.7-0.1c0.4-0.1,0.8-0.1,1.2-0.3C29.9,17.8,29.9,17.9,29.9,18L29.9,18z"/>
<path d="M28.4,15.1c-0.1,0-0.3,0-0.4,0c-0.5,0-0.9-0.1-1.5-0.3c-0.6-0.2-1.1-0.6-1.7-1.1C24,13,23.3,12.1,22.5,11   c-0.3-0.4-0.5-0.8-0.8-1.2c-0.2-0.3-0.4-0.6-0.5-0.8c-0.8-1.2-1.6-2.2-2.4-3.2c-1.2-1.3-2.3-2.3-3.6-3c-0.5-0.3-1.1-0.6-1.7-0.8   c0.1,0,0.3,0,0.5,0c0.3,0,0.6,0,1,0.1c1,0.1,2,0.4,2.9,0.8c1.2,0.5,2.3,1.3,3.4,2.4c0.3,0.3,0.6,0.6,0.8,0.9   c0.4,0.5,0.9,1.1,1.3,1.6C23.7,8.2,24,8.6,24.3,9c0.2,0.2,0.3,0.5,0.5,0.7c0.5,0.7,1.1,1.6,2,2.3c0.9,0.7,1.8,1,2.8,1   c0.1,0,0.2,0,0.2,0c0,0.1,0,0.1,0,0.2c0.1,0.3,0.1,0.7,0.1,1v0.1C29.5,14.8,29,15.1,28.4,15.1L28.4,15.1z"/>
</g>
</svg>